<?xml version="1.0" encoding="UTF-8" standalone="no"?>
<!-- Created with Inkscape (http://www.inkscape.org/) -->

<svg
   xmlns:dc="http://purl.org/dc/elements/1.1/"
   xmlns:cc="http://creativecommons.org/ns#"
   xmlns:rdf="http://www.w3.org/1999/02/22-rdf-syntax-ns#"
   xmlns:svg="http://www.w3.org/2000/svg"
   xmlns="http://www.w3.org/2000/svg"
   xmlns:sodipodi="http://sodipodi.sourceforge.net/DTD/sodipodi-0.dtd"
   xmlns:inkscape="http://www.inkscape.org/namespaces/inkscape"
   width="360.51001"
   height="410.76001"
   id="svg2"
   version="1.1"
   inkscape:version="0.47 r22583"
   sodipodi:docname="PolygonsSetUnion.svg">
  <defs
     id="defs4">
    <marker
       inkscape:stockid="Arrow1Mend"
       orient="auto"
       refY="0"
       refX="0"
       id="Arrow1Mend"
       style="overflow:visible">
      <path
         id="path5390"
         d="M 0,0 5,-5 -12.5,0 5,5 0,0 z"
         style="fill-rule:evenodd;stroke:#000000;stroke-width:1pt;marker-start:none"
         transform="matrix(-0.4, 0, 0, -0.4, -4, 0)" />
    </marker>
    <inkscape:perspective
       sodipodi:type="inkscape:persp3d"
       inkscape:vp_x="0 : 526.18109 : 1"
       inkscape:vp_y="0 : 1000 : 0"
       inkscape:vp_z="744.09448 : 526.18109 : 1"
       inkscape:persp3d-origin="372.04724 : 350.78739 : 1"
       id="perspective10" />
    <inkscape:perspective
       id="perspective2831"
       inkscape:persp3d-origin="0.5 : 0.33333333 : 1"
       inkscape:vp_z="1 : 0.5 : 1"
       inkscape:vp_y="0 : 1000 : 0"
       inkscape:vp_x="0 : 0.5 : 1"
       sodipodi:type="inkscape:persp3d" />
    <inkscape:perspective
       id="perspective2856"
       inkscape:persp3d-origin="0.5 : 0.33333333 : 1"
       inkscape:vp_z="1 : 0.5 : 1"
       inkscape:vp_y="0 : 1000 : 0"
       inkscape:vp_x="0 : 0.5 : 1"
       sodipodi:type="inkscape:persp3d" />
    <inkscape:perspective
       id="perspective2856-1"
       inkscape:persp3d-origin="0.5 : 0.33333333 : 1"
       inkscape:vp_z="1 : 0.5 : 1"
       inkscape:vp_y="0 : 1000 : 0"
       inkscape:vp_x="0 : 0.5 : 1"
       sodipodi:type="inkscape:persp3d" />
    <inkscape:perspective
       id="perspective4581"
       inkscape:persp3d-origin="0.5 : 0.33333333 : 1"
       inkscape:vp_z="1 : 0.5 : 1"
       inkscape:vp_y="0 : 1000 : 0"
       inkscape:vp_x="0 : 0.5 : 1"
       sodipodi:type="inkscape:persp3d" />
    <inkscape:perspective
       id="perspective5169"
       inkscape:persp3d-origin="0.5 : 0.33333333 : 1"
       inkscape:vp_z="1 : 0.5 : 1"
       inkscape:vp_y="0 : 1000 : 0"
       inkscape:vp_x="0 : 0.5 : 1"
       sodipodi:type="inkscape:persp3d" />
    <inkscape:perspective
       id="perspective5834"
       inkscape:persp3d-origin="0.5 : 0.33333333 : 1"
       inkscape:vp_z="1 : 0.5 : 1"
       inkscape:vp_y="0 : 1000 : 0"
       inkscape:vp_x="0 : 0.5 : 1"
       sodipodi:type="inkscape:persp3d" />
    <marker
       inkscape:stockid="Arrow1Mend"
       orient="auto"
       refY="0"
       refX="0"
       id="Arrow1Mend-9"
       style="overflow:visible">
      <path
         id="path5390-1"
         d="M 0,0 5,-5 -12.5,0 5,5 0,0 z"
         style="fill-rule:evenodd;stroke:#000000;stroke-width:1pt;marker-start:none"
         transform="matrix(-0.4, 0, 0, -0.4, -4, 0)" />
    </marker>
    <inkscape:perspective
       id="perspective3660"
       inkscape:persp3d-origin="0.5 : 0.33333333 : 1"
       inkscape:vp_z="1 : 0.5 : 1"
       inkscape:vp_y="0 : 1000 : 0"
       inkscape:vp_x="0 : 0.5 : 1"
       sodipodi:type="inkscape:persp3d" />
    <inkscape:perspective
       id="perspective3697"
       inkscape:persp3d-origin="0.5 : 0.33333333 : 1"
       inkscape:vp_z="1 : 0.5 : 1"
       inkscape:vp_y="0 : 1000 : 0"
       inkscape:vp_x="0 : 0.5 : 1"
       sodipodi:type="inkscape:persp3d" />
    <inkscape:perspective
       id="perspective3750"
       inkscape:persp3d-origin="0.5 : 0.33333333 : 1"
       inkscape:vp_z="1 : 0.5 : 1"
       inkscape:vp_y="0 : 1000 : 0"
       inkscape:vp_x="0 : 0.5 : 1"
       sodipodi:type="inkscape:persp3d" />
    <inkscape:perspective
       id="perspective3750-4"
       inkscape:persp3d-origin="0.5 : 0.33333333 : 1"
       inkscape:vp_z="1 : 0.5 : 1"
       inkscape:vp_y="0 : 1000 : 0"
       inkscape:vp_x="0 : 0.5 : 1"
       sodipodi:type="inkscape:persp3d" />
    <inkscape:perspective
       id="perspective3786"
       inkscape:persp3d-origin="0.5 : 0.33333333 : 1"
       inkscape:vp_z="1 : 0.5 : 1"
       inkscape:vp_y="0 : 1000 : 0"
       inkscape:vp_x="0 : 0.5 : 1"
       sodipodi:type="inkscape:persp3d" />
    <inkscape:perspective
       id="perspective3659"
       inkscape:persp3d-origin="0.5 : 0.33333333 : 1"
       inkscape:vp_z="1 : 0.5 : 1"
       inkscape:vp_y="0 : 1000 : 0"
       inkscape:vp_x="0 : 0.5 : 1"
       sodipodi:type="inkscape:persp3d" />
    <inkscape:perspective
       id="perspective3702"
       inkscape:persp3d-origin="0.5 : 0.33333333 : 1"
       inkscape:vp_z="1 : 0.5 : 1"
       inkscape:vp_y="0 : 1000 : 0"
       inkscape:vp_x="0 : 0.5 : 1"
       sodipodi:type="inkscape:persp3d" />
    <inkscape:perspective
       id="perspective3730"
       inkscape:persp3d-origin="0.5 : 0.33333333 : 1"
       inkscape:vp_z="1 : 0.5 : 1"
       inkscape:vp_y="0 : 1000 : 0"
       inkscape:vp_x="0 : 0.5 : 1"
       sodipodi:type="inkscape:persp3d" />
    <inkscape:perspective
       id="perspective3730-6"
       inkscape:persp3d-origin="0.5 : 0.33333333 : 1"
       inkscape:vp_z="1 : 0.5 : 1"
       inkscape:vp_y="0 : 1000 : 0"
       inkscape:vp_x="0 : 0.5 : 1"
       sodipodi:type="inkscape:persp3d" />
    <inkscape:perspective
       id="perspective3766"
       inkscape:persp3d-origin="0.5 : 0.33333333 : 1"
       inkscape:vp_z="1 : 0.5 : 1"
       inkscape:vp_y="0 : 1000 : 0"
       inkscape:vp_x="0 : 0.5 : 1"
       sodipodi:type="inkscape:persp3d" />
    <inkscape:perspective
       id="perspective3766-1"
       inkscape:persp3d-origin="0.5 : 0.33333333 : 1"
       inkscape:vp_z="1 : 0.5 : 1"
       inkscape:vp_y="0 : 1000 : 0"
       inkscape:vp_x="0 : 0.5 : 1"
       sodipodi:type="inkscape:persp3d" />
    <inkscape:perspective
       id="perspective3766-4"
       inkscape:persp3d-origin="0.5 : 0.33333333 : 1"
       inkscape:vp_z="1 : 0.5 : 1"
       inkscape:vp_y="0 : 1000 : 0"
       inkscape:vp_x="0 : 0.5 : 1"
       sodipodi:type="inkscape:persp3d" />
    <inkscape:perspective
       id="perspective3813"
       inkscape:persp3d-origin="0.5 : 0.33333333 : 1"
       inkscape:vp_z="1 : 0.5 : 1"
       inkscape:vp_y="0 : 1000 : 0"
       inkscape:vp_x="0 : 0.5 : 1"
       sodipodi:type="inkscape:persp3d" />
    <inkscape:perspective
       id="perspective3669"
       inkscape:persp3d-origin="0.5 : 0.33333333 : 1"
       inkscape:vp_z="1 : 0.5 : 1"
       inkscape:vp_y="0 : 1000 : 0"
       inkscape:vp_x="0 : 0.5 : 1"
       sodipodi:type="inkscape:persp3d" />
    <inkscape:perspective
       id="perspective2881"
       inkscape:persp3d-origin="0.5 : 0.33333333 : 1"
       inkscape:vp_z="1 : 0.5 : 1"
       inkscape:vp_y="0 : 1000 : 0"
       inkscape:vp_x="0 : 0.5 : 1"
       sodipodi:type="inkscape:persp3d" />
    <inkscape:perspective
       id="perspective2917"
       inkscape:persp3d-origin="0.5 : 0.33333333 : 1"
       inkscape:vp_z="1 : 0.5 : 1"
       inkscape:vp_y="0 : 1000 : 0"
       inkscape:vp_x="0 : 0.5 : 1"
       sodipodi:type="inkscape:persp3d" />
  </defs>
  <sodipodi:namedview
     id="base"
     pagecolor="#ffffff"
     bordercolor="#666666"
     borderopacity="1.0"
     inkscape:pageopacity="0.0"
     inkscape:pageshadow="2"
     inkscape:zoom="1.979899"
     inkscape:cx="63.576492"
     inkscape:cy="292.45411"
     inkscape:document-units="px"
     inkscape:current-layer="layer1"
     showgrid="false"
     inkscape:window-width="1366"
     inkscape:window-height="739"
     inkscape:window-x="0"
     inkscape:window-y="1"
     inkscape:window-maximized="1" />
  <metadata
     id="metadata7">
    <rdf:RDF>
      <cc:Work
         rdf:about="">
        <dc:format>image/svg+xml</dc:format>
        <dc:type
           rdf:resource="http://purl.org/dc/dcmitype/StillImage" />
        <dc:title />
      </cc:Work>
    </rdf:RDF>
  </metadata>
  <g
     inkscape:label="Layer 1"
     inkscape:groupmode="layer"
     id="layer1"
     transform="translate(-270.738, -146.295)">
    <path
       style="color:#000000;fill:#e6f0fa;fill-opacity:1;fill-rule:nonzero;stroke:#000000;stroke-width:3.75;stroke-linecap:round;stroke-linejoin:round;stroke-miterlimit:4;stroke-opacity:1;stroke-dasharray:none;stroke-dashoffset:0.59999999999999998;marker:none;visibility:visible;display:inline;overflow:visible;enable-background:accumulate"
       d="m 619.91063,427.39673 c -0.31834,65.75478 -69.21084,118.72731 -153.87569,118.31742 -84.66486,-0.40989 -153.0412,-54.04698 -152.72286,-119.80176 0.31834,-65.75483 69.21082,-118.72734 153.87567,-118.31745 84.66486,0.40989 153.04122,54.04697 152.72288,119.80179 z"
       id="path5930" />
    <path
       style="color:#000000;fill:#3cb371;fill-opacity:1;fill-rule:nonzero;stroke:#000000;stroke-width:3.75;stroke-linecap:round;stroke-linejoin:round;stroke-miterlimit:3.96428585;stroke-opacity:1;stroke-dasharray:none;stroke-dashoffset:0.6;marker:none;visibility:visible;display:inline;overflow:visible;enable-background:accumulate"
       d="m 480.45696,517.90012 c 0,0 -45.93748,10.14192 -45.93748,10.14192 0,0 14.18557,-44.85398 14.18557,-44.85398 0,0 31.75191,34.71206 31.75191,34.71206 z"
       id="path2816"
       sodipodi:nodetypes="cccc" />
    <rect
       style="color:#000000;fill:#9ade00;fill-opacity:1;fill-rule:nonzero;stroke:#000000;stroke-width:3.75;stroke-linecap:round;stroke-linejoin:round;stroke-miterlimit:3.96428585;stroke-opacity:1;stroke-dasharray:none;stroke-dashoffset:0.6;marker:none;visibility:visible;display:inline;overflow:visible;enable-background:accumulate"
       id="rect2883"
       width="36.627972"
       height="36.627972"
       x="541.26514"
       y="232.93625"
       transform="matrix(0.979725, 0.200346, -0.200346, 0.979725, 0, 0)" />
    <path
       style="color:#000000;fill:#fd7118;fill-opacity:1;fill-rule:nonzero;stroke:#000000;stroke-width:3.75;stroke-linecap:round;stroke-linejoin:round;stroke-miterlimit:3.96428585;stroke-opacity:1;stroke-dasharray:none;stroke-dashoffset:0.6;marker:none;visibility:visible;display:inline;overflow:visible;enable-background:accumulate"
       d="m 369.58029,486.69946 c 0,0 -24.22217,-18.10089 -24.22217,-18.10089 0,0 9.72992,-28.63016 9.72992,-28.63016 0,0 30.23562,0.40649 30.23562,0.40649 0,0 8.95669,28.8814 8.95669,28.8814 0,0 -24.70006,17.44316 -24.70006,17.44316 z"
       id="path3659"
       sodipodi:nodetypes="cccccc" />
    <path
       sodipodi:type="star"
       style="color:#000000;fill:#ff2a2a;fill-opacity:1;fill-rule:nonzero;stroke:#000000;stroke-width:5.72666168;stroke-linecap:round;stroke-linejoin:round;stroke-miterlimit:3.96428585;stroke-opacity:1;stroke-dasharray:none;stroke-dashoffset:0;marker:none;visibility:visible;display:inline;overflow:visible;enable-background:accumulate"
       id="path3650"
       sodipodi:sides="5"
       sodipodi:cx="-324.28571"
       sodipodi:cy="392.85715"
       sodipodi:r1="52.000786"
       sodipodi:r2="24.323479"
       sodipodi:arg1="1.2055949"
       sodipodi:arg2="1.8339134"
       inkscape:flatsided="false"
       inkscape:rounded="0"
       inkscape:randomized="0"
       d="m -305.71428,441.42858 -24.89776,-25.08507 -34.12895,9.18551 16.16348,-31.43089 -19.28237,-29.62008 34.88735,5.65971 22.21179,-27.49174 5.39808,34.92879 33.01002,12.62926 -31.55115,15.92746 -1.81049,35.29705 z"
       transform="matrix(0.648273, 0.0924489, -0.0924489, 0.648273, 803.927, 223.067)" />
    <rect
       style="color:#000000;fill:#fdf198;fill-opacity:1;fill-rule:nonzero;stroke:#000000;stroke-width:3.75;stroke-linecap:round;stroke-linejoin:round;stroke-miterlimit:3.96938777;stroke-opacity:1;stroke-dasharray:none;stroke-dashoffset:0;marker:none;visibility:visible;display:inline;overflow:visible;enable-background:accumulate"
       id="rect3649"
       width="77.857147"
       height="29.285717"
       x="324.58182"
       y="498.66443"
       transform="matrix(0.980157, -0.198221, 0.198221, 0.980157, 0, 0)" />
    <rect
       style="color:#000000;fill:#9ade00;fill-opacity:1;fill-rule:nonzero;stroke:#000000;stroke-width:3.125;stroke-linecap:round;stroke-linejoin:round;stroke-miterlimit:3.96513605;stroke-opacity:1;stroke-dasharray:none;stroke-dashoffset:0.6;marker:none;visibility:visible;display:inline;overflow:visible;enable-background:accumulate"
       id="rect2883-4"
       width="25.63958"
       height="25.63958"
       x="465.42535"
       y="192.39392"
       transform="matrix(0.99993, -0.011842, 0.011842, 0.99993, 0, 0)" />
    <path
       style="color:#000000;fill:#fd7118;fill-opacity:1;fill-rule:nonzero;stroke:#000000;stroke-width:3.125;stroke-linecap:round;stroke-linejoin:round;stroke-miterlimit:3.96513605;stroke-opacity:1;stroke-dasharray:none;stroke-dashoffset:0.6;marker:none;visibility:visible;display:inline;overflow:visible;enable-background:accumulate"
       d="m 379.30313,212.50663 c 0,0 -21.16487,-0.28455 -21.16487,-0.28455 0,0 -6.2697,-20.21696 -6.2697,-20.21696 0,0 17.29003,-12.21024 17.29003,-12.21024 0,0 16.95553,12.67066 16.95553,12.67066 0,0 -6.81098,20.04109 -6.81098,20.04109 z"
       id="path3659-3"
       sodipodi:nodetypes="cccccc" />
    <rect
       style="color:#000000;fill:#fdf198;fill-opacity:1;fill-rule:nonzero;stroke:#000000;stroke-width:3.125;stroke-linecap:round;stroke-linejoin:round;stroke-miterlimit:3.96513605;stroke-opacity:1;stroke-dasharray:none;stroke-dashoffset:0;marker:none;visibility:visible;display:inline;overflow:visible;enable-background:accumulate"
       id="rect3649-4"
       width="54.500004"
       height="20.500002"
       x="154.02972"
       y="-552.84943"
       transform="matrix(-0.00720326, 0.999974, -0.999974, -0.00720326, 0, 0)" />
    <g
       style="font-size:36px;font-style:normal;font-variant:normal;font-weight:normal;font-stretch:normal;fill:#000000;fill-opacity:1;stroke:none;font-family:Gentium;-inkscape-font-specification:Gentium"
       id="text3688">
      <path
         d="m 290.08374,199.12772 5.7832,0 -1.65234,-9.5625 -4.13086,9.5625 m 11.54883,9.40429 -6.76758,0 0.0703,-0.75586 c 0.83202,-0.0586 1.42968,-0.17578 1.79297,-0.35156 0.36327,-0.1875 0.50975,-0.46875 0.43945,-0.84375 l -1.01953,-5.85351 -6.75,0 -2.51367,5.85351 c -0.16406,0.36328 -0.0762,0.62696 0.26367,0.79102 0.35156,0.15234 0.97851,0.28711 1.88086,0.40429 l -0.10547,0.75586 -6.66211,0 0.10547,-0.75586 c 0.73828,-0.14062 1.33008,-0.2871 1.77539,-0.43945 0.44531,-0.16406 0.74414,-0.41601 0.89649,-0.75586 l 8.56055,-19.65234 c 0.15233,-0.14061 0.33397,-0.28123 0.54492,-0.42188 0.21092,-0.15232 0.42772,-0.29294 0.65039,-0.42187 0.22264,-0.14061 0.43358,-0.26951 0.63281,-0.38672 0.21092,-0.12888 0.39257,-0.23435 0.54492,-0.31641 l 3.79688,21.19922 c 0.0234,0.16407 0.0644,0.31055 0.12304,0.43945 0.0703,0.11719 0.17577,0.22852 0.31641,0.33399 0.14061,0.0937 0.32811,0.17578 0.5625,0.24609 0.24608,0.0703 0.55662,0.12891 0.93164,0.17578 l -0.0703,0.75586"
         style="font-style:italic;-inkscape-font-specification:Andale Mono Italic"
         id="path3915" />
      <path
         d="m 325.02905,195.47147 c -0.0586,0.23438 -0.14064,0.50391 -0.24609,0.80859 -0.10548,0.29298 -0.19337,0.53907 -0.26367,0.73828 l -12.70899,0 -0.43945,-0.43945 c 0.0586,-0.23436 0.13476,-0.49218 0.22852,-0.77344 0.10546,-0.29296 0.21093,-0.55077 0.3164,-0.77344 l 12.67383,0 0.43945,0.43946 0,0 m 0,5.25586 c -0.0586,0.2461 -0.14064,0.51563 -0.24609,0.80859 -0.10548,0.29297 -0.19337,0.55079 -0.26367,0.77344 l -12.70899,0 -0.43945,-0.47461 c 0.0586,-0.23437 0.13476,-0.49218 0.22852,-0.77344 0.10546,-0.28124 0.21093,-0.53905 0.3164,-0.77344 l 12.67383,0 0.43945,0.43946 0,0"
         style=""
         id="path3917" />
      <path
         d="m 345.47241,181.23318 c -0.45704,0.28128 -0.88477,0.60355 -1.2832,0.9668 -0.38673,0.36331 -0.72657,0.76761 -1.01953,1.21289 -0.29298,0.43362 -0.5215,0.90823 -0.68555,1.42383 -0.16407,0.51565 -0.2461,1.07815 -0.24609,1.6875 -1e-5,0.67971 0.0351,1.23635 0.10547,1.66992 0.082,0.43362 0.16405,0.84377 0.24609,1.23047 0.0937,0.37502 0.17577,0.77932 0.24609,1.21289 0.082,0.43361 0.12304,0.99025 0.12305,1.66992 -10e-6,0.49221 -0.0762,0.97853 -0.22852,1.45899 -0.14063,0.46876 -0.34571,0.91407 -0.61523,1.33594 -0.26954,0.41016 -0.60352,0.78516 -1.00195,1.125 -0.38673,0.33985 -0.82618,0.61524 -1.31836,0.82617 0.58593,0.10548 1.07812,0.29298 1.47656,0.5625 0.41015,0.25782 0.73827,0.58595 0.98438,0.98437 0.24608,0.39845 0.42186,0.8672 0.52734,1.40625 0.11718,0.52735 0.17577,1.11329 0.17578,1.75781 -10e-6,0.70314 -0.041,1.30079 -0.12305,1.79297 -0.0703,0.4922 -0.15235,0.95509 -0.24609,1.38868 -0.082,0.43359 -0.16407,0.86719 -0.24609,1.30078 -0.0703,0.43359 -0.10548,0.94336 -0.10547,1.52929 -1e-5,0.64453 0.041,1.21289 0.12304,1.70508 0.0937,0.50391 0.25195,0.95508 0.47461,1.35352 0.23437,0.41015 0.54492,0.78515 0.93164,1.125 0.39843,0.35156 0.9082,0.69726 1.5293,1.03711 l -0.4043,1.07226 c -0.98438,-0.39844 -1.82813,-0.82031 -2.53125,-1.26562 -0.70313,-0.4336 -1.28321,-0.91993 -1.74023,-1.45899 -0.44532,-0.53906 -0.77344,-1.14258 -0.98438,-1.81054 -0.21094,-0.66797 -0.31641,-1.42383 -0.3164,-2.26758 -10e-6,-0.69141 0.0351,-1.25977 0.10547,-1.70508 0.082,-0.45703 0.16405,-0.89062 0.24609,-1.30078 0.0937,-0.42187 0.17578,-0.86718 0.24609,-1.33594 0.082,-0.48046 0.12305,-1.08398 0.12305,-1.81055 0,-0.94921 -0.24024,-1.66405 -0.7207,-2.14453 -0.46876,-0.49217 -1.14258,-0.73827 -2.02149,-0.73828 -0.16406,1e-5 -0.28711,1e-5 -0.36914,0 -0.0703,1e-5 -0.13476,0.006 -0.19336,0.0176 -0.0586,1e-5 -0.1289,0.0117 -0.21093,0.0352 -0.0703,0.0117 -0.19337,0.0293 -0.36914,0.0527 l -0.29883,-0.93164 c 1.38281,-0.36327 2.42577,-0.90819 3.1289,-1.63477 0.70312,-0.72654 1.05469,-1.52928 1.05469,-2.4082 0,-0.46873 -0.0176,-0.87303 -0.0527,-1.21289 -0.0352,-0.33983 -0.082,-0.64451 -0.14063,-0.91406 -0.0469,-0.28123 -0.10547,-0.53905 -0.17578,-0.77344 -0.0586,-0.24607 -0.11719,-0.50389 -0.17578,-0.77344 -0.0469,-0.26951 -0.0879,-0.5742 -0.12305,-0.91406 -0.0352,-0.35154 -0.0527,-0.76756 -0.0527,-1.24805 -10e-6,-0.78513 0.1289,-1.52341 0.38672,-2.21484 0.26952,-0.7031 0.65038,-1.34763 1.14258,-1.93359 0.49218,-0.59763 1.08983,-1.14256 1.79296,-1.63477 0.70312,-0.49216 1.49413,-0.93747 2.37305,-1.33594 l 0.45703,0.82617 0,0"
         style=""
         id="path3919" />
    </g>
    <g
       style="font-size:36px;font-style:normal;font-variant:normal;font-weight:normal;font-stretch:normal;fill:#000000;fill-opacity:1;stroke:none;font-family:Gentium;-inkscape-font-specification:Gentium"
       id="text3688-3"
       transform="translate(-3.90028)">
      <path
         d="m 576.5578,197.08865 c -1.39454,0.3633 -2.44337,0.90236 -3.14648,1.61719 -0.69142,0.70314 -1.03712,1.50587 -1.03711,2.4082 -10e-6,0.46876 0.0176,0.87306 0.0527,1.21289 0.0352,0.33985 0.0762,0.64454 0.12305,0.91407 0.0469,0.26953 0.0996,0.52149 0.1582,0.75586 0.0703,0.23438 0.1289,0.49219 0.17578,0.77343 0.0469,0.26954 0.0879,0.57423 0.12305,0.91407 0.0352,0.33984 0.0527,0.75 0.0527,1.23047 0,0.79687 -0.13477,1.54101 -0.40429,2.23242 -0.25782,0.6914 -0.63282,1.33593 -1.125,1.93359 -0.4922,0.59765 -1.08985,1.14258 -1.79297,1.63477 -0.70313,0.5039 -1.48829,0.95507 -2.35547,1.35351 l -0.47461,-0.86133 c 0.45703,-0.28125 0.8789,-0.60352 1.26562,-0.96679 0.39844,-0.35157 0.74414,-0.75001 1.03711,-1.19532 0.29297,-0.43359 0.52148,-0.91406 0.68555,-1.4414 0.16406,-0.51563 0.24609,-1.07813 0.24609,-1.6875 0,-0.67969 -0.0352,-1.23047 -0.10546,-1.65235 -0.0703,-0.43359 -0.15235,-0.83788 -0.2461,-1.21289 -0.082,-0.38671 -0.1582,-0.79687 -0.22851,-1.23046 -0.0703,-0.44531 -0.10548,-1.01367 -0.10547,-1.70508 -10e-6,-0.48046 0.0703,-0.95507 0.21094,-1.42383 0.14062,-0.46874 0.34569,-0.9082 0.61523,-1.31836 0.28125,-0.41015 0.61523,-0.77929 1.00195,-1.10742 0.39843,-0.33984 0.84961,-0.61523 1.35352,-0.82617 -0.59766,-0.11718 -1.10157,-0.30468 -1.51172,-0.5625 -0.39844,-0.26952 -0.72657,-0.60351 -0.98438,-1.00196 -0.24609,-0.41014 -0.42187,-0.87889 -0.52734,-1.40625 -0.10547,-0.53904 -0.15821,-1.1367 -0.1582,-1.79297 -10e-6,-0.69139 0.0352,-1.28318 0.10547,-1.77539 0.0703,-0.49217 0.14648,-0.95506 0.22851,-1.38867 0.0937,-0.43357 0.17578,-0.86717 0.2461,-1.30078 0.0703,-0.43357 0.10546,-0.93748 0.10546,-1.51172 0,-0.65623 -0.0469,-1.2363 -0.14062,-1.74023 -0.082,-0.50388 -0.24024,-0.95506 -0.47461,-1.35352 -0.22266,-0.41013 -0.53321,-0.77927 -0.93164,-1.10742 -0.39844,-0.33982 -0.90235,-0.67966 -1.51172,-1.01953 l 0.4043,-1.07227 c 0.98437,0.38675 1.82812,0.80276 2.53125,1.24805 0.71484,0.43362 1.29491,0.91995 1.74023,1.45898 0.44531,0.53909 0.77343,1.14261 0.98438,1.81055 0.21093,0.65627 0.3164,1.40627 0.3164,2.25 0,0.69143 -0.0352,1.26565 -0.10547,1.72266 -0.0703,0.45705 -0.15235,0.8965 -0.24609,1.31836 -0.082,0.41017 -0.15821,0.85548 -0.22851,1.33593 -0.0703,0.46877 -0.10548,1.06057 -0.10547,1.77539 -10e-6,0.94924 0.23437,1.66994 0.70312,2.16211 0.48046,0.4922 1.16015,0.7383 2.03906,0.73829 0.15234,1e-5 0.26367,1e-5 0.33399,0 0.0703,1e-5 0.13475,1e-5 0.19336,0 0.0586,-0.0117 0.12889,-0.0234 0.21094,-0.0352 0.0937,-0.0234 0.2285,-0.0527 0.40429,-0.0879 l 0.29883,0.98437 0,0"
         id="path3903" />
    </g>
    <g
       style="font-size:36px;font-style:normal;font-variant:normal;font-weight:normal;font-stretch:normal;fill:#000000;fill-opacity:1;stroke:none;font-family:Gentium;-inkscape-font-specification:Gentium"
       id="text3688-3-7">
      <path
         d="m 400.66757,207.47733 c 0,0.45703 -0.0937,0.97265 -0.28125,1.54687 -0.17579,0.57422 -0.43946,1.16016 -0.79101,1.75781 -0.33985,0.59766 -0.75587,1.17773 -1.24805,1.74024 -0.48047,0.57421 -1.02539,1.08984 -1.63477,1.54687 l -0.79101,-0.61523 c 0.32812,-0.37501 0.60351,-0.73829 0.82617,-1.08985 0.23437,-0.35156 0.42187,-0.71484 0.5625,-1.08984 0.14062,-0.375 0.24023,-0.77344 0.29883,-1.19531 0.0703,-0.41016 0.10546,-0.86719 0.10547,-1.3711 -10e-6,-0.51562 -0.16407,-0.92578 -0.49219,-1.23046 -0.31641,-0.30469 -0.84961,-0.4336 -1.59961,-0.38672 l -0.28125,-0.82618 c 0.10547,-0.14062 0.32812,-0.29882 0.66797,-0.4746 0.33984,-0.1875 0.70898,-0.36328 1.10742,-0.52735 0.41015,-0.17578 0.80859,-0.3164 1.19531,-0.42187 0.39844,-0.11719 0.70312,-0.16992 0.91407,-0.15821 0.56249,0.26954 0.94335,0.63868 1.14257,1.10743 0.19922,0.45703 0.29883,1.01953 0.29883,1.6875"
         style=""
         id="path3912" />
    </g>
    <g
       style="font-size:36px;font-style:normal;font-variant:normal;font-weight:normal;font-stretch:normal;fill:#000000;fill-opacity:1;stroke:none;font-family:Gentium;-inkscape-font-specification:Gentium"
       id="text3688-3-7-9">
      <path
         d="m 456.25406,207.47733 c -10e-6,0.45703 -0.0938,0.97265 -0.28125,1.54687 -0.17579,0.57422 -0.43946,1.16016 -0.79102,1.75781 -0.33985,0.59766 -0.75586,1.17773 -1.24804,1.74024 -0.48048,0.57421 -1.0254,1.08984 -1.63477,1.54687 l -0.79101,-0.61523 c 0.32812,-0.37501 0.60351,-0.73829 0.82617,-1.08985 0.23437,-0.35156 0.42187,-0.71484 0.5625,-1.08984 0.14062,-0.375 0.24023,-0.77344 0.29883,-1.19531 0.0703,-0.41016 0.10546,-0.86719 0.10546,-1.3711 0,-0.51562 -0.16406,-0.92578 -0.49218,-1.23046 -0.31641,-0.30469 -0.84962,-0.4336 -1.59961,-0.38672 l -0.28125,-0.82618 c 0.10546,-0.14062 0.32812,-0.29882 0.66797,-0.4746 0.33984,-0.1875 0.70898,-0.36328 1.10742,-0.52735 0.41015,-0.17578 0.80859,-0.3164 1.19531,-0.42187 0.39843,-0.11719 0.70312,-0.16992 0.91406,-0.15821 0.5625,0.26954 0.94336,0.63868 1.14258,1.10743 0.19921,0.45703 0.29882,1.01953 0.29883,1.6875"
         style=""
         id="path3909" />
    </g>
    <g
       style="font-size:36px;font-style:normal;font-variant:normal;font-weight:normal;font-stretch:normal;fill:#000000;fill-opacity:1;stroke:none;font-family:Gentium;-inkscape-font-specification:Gentium"
       id="text3688-3-7-5">
      <path
         d="m 512.68265,207.47733 c -10e-6,0.45703 -0.0938,0.97265 -0.28125,1.54687 -0.17579,0.57422 -0.43946,1.16016 -0.79102,1.75781 -0.33985,0.59766 -0.75586,1.17773 -1.24804,1.74024 -0.48048,0.57421 -1.0254,1.08984 -1.63477,1.54687 l -0.79102,-0.61523 c 0.32813,-0.37501 0.60352,-0.73829 0.82618,-1.08985 0.23437,-0.35156 0.42187,-0.71484 0.5625,-1.08984 0.14062,-0.375 0.24023,-0.77344 0.29882,-1.19531 0.0703,-0.41016 0.10547,-0.86719 0.10547,-1.3711 0,-0.51562 -0.16406,-0.92578 -0.49218,-1.23046 -0.31641,-0.30469 -0.84962,-0.4336 -1.59961,-0.38672 l -0.28125,-0.82618 c 0.10546,-0.14062 0.32812,-0.29882 0.66796,-0.4746 0.33985,-0.1875 0.70899,-0.36328 1.10743,-0.52735 0.41015,-0.17578 0.80859,-0.3164 1.19531,-0.42187 0.39843,-0.11719 0.70312,-0.16992 0.91406,-0.15821 0.5625,0.26954 0.94335,0.63868 1.14258,1.10743 0.19921,0.45703 0.29882,1.01953 0.29883,1.6875"
         style=""
         id="path3906" />
    </g>
    <path
       style="color:#000000;fill:#3cb371;fill-opacity:1;fill-rule:nonzero;stroke:#000000;stroke-width:3.12499976;stroke-linecap:round;stroke-linejoin:round;stroke-miterlimit:3.96513605;stroke-opacity:1;stroke-dasharray:none;stroke-dashoffset:0.6;marker:none;visibility:visible;display:inline;overflow:visible;enable-background:accumulate"
       d="m 387.78012,278.23258 c 0,0 -32.92914,-0.31618 -32.92914,-0.31618 0,0 16.73841,-28.35926 16.73841,-28.35926 0,0 16.19073,28.67544 16.19073,28.67544 z"
       id="path2816-4"
       sodipodi:nodetypes="cccc" />
    <path
       sodipodi:type="star"
       style="color:#000000;fill:#ff2a2a;fill-opacity:1;fill-rule:nonzero;stroke:#000000;stroke-width:6.81745434;stroke-linecap:round;stroke-linejoin:round;stroke-miterlimit:3.96513605;stroke-opacity:1;stroke-dasharray:none;stroke-dashoffset:0;marker:none;visibility:visible;display:inline;overflow:visible;enable-background:accumulate"
       id="path3650-3"
       sodipodi:sides="5"
       sodipodi:cx="-324.28571"
       sodipodi:cy="392.85715"
       sodipodi:r1="52.000786"
       sodipodi:r2="24.323479"
       sodipodi:arg1="1.2055949"
       sodipodi:arg2="1.8339134"
       inkscape:flatsided="false"
       inkscape:rounded="0"
       inkscape:randomized="0"
       d="m -305.71428,441.42858 -24.89776,-25.08507 -34.12895,9.18551 16.16348,-31.43089 -19.28237,-29.62008 34.88735,5.65971 22.21179,-27.49174 5.39808,34.92879 33.01002,12.62926 -31.55115,15.92746 -1.81049,35.29705 z"
       transform="matrix(0.443003, -0.11774, 0.117741, 0.443002, 536.525, 46.6837)" />
    <g
       style="font-size:36px;font-style:normal;font-variant:normal;font-weight:normal;font-stretch:normal;fill:#000000;fill-opacity:1;stroke:none;font-family:Gentium;-inkscape-font-specification:Gentium"
       id="text3688-3-8"
       transform="translate(46.30014,0)">
      <path
         d="m 495.17032,262.81485 c -1.39454,0.36329 -2.44337,0.90235 -3.14649,1.61719 -0.69141,0.70313 -1.03711,1.50587 -1.03711,2.4082 0,0.46876 0.0176,0.87305 0.0527,1.21289 0.0351,0.33985 0.0762,0.64454 0.12305,0.91406 0.0469,0.26954 0.0996,0.52149 0.1582,0.75586 0.0703,0.23438 0.1289,0.49219 0.17578,0.77344 0.0469,0.26954 0.0879,0.57422 0.12305,0.91406 0.0352,0.33985 0.0527,0.75001 0.0527,1.23047 -10e-6,0.79688 -0.13477,1.54102 -0.4043,2.23242 -0.25781,0.69141 -0.63281,1.33594 -1.125,1.9336 -0.49219,0.59765 -1.08984,1.14257 -1.79296,1.63476 -0.70313,0.5039 -1.48829,0.95508 -2.35547,1.35352 l -0.47461,-0.86133 c 0.45703,-0.28125 0.8789,-0.60352 1.26562,-0.9668 0.39844,-0.35156 0.74414,-0.75 1.03711,-1.19531 0.29297,-0.43359 0.52148,-0.91406 0.68555,-1.44141 0.16406,-0.51562 0.24609,-1.07812 0.24609,-1.6875 0,-0.67968 -0.0352,-1.23046 -0.10547,-1.65234 -0.0703,-0.43359 -0.15234,-0.83789 -0.24609,-1.21289 -0.082,-0.38671 -0.15821,-0.79687 -0.22852,-1.23047 -0.0703,-0.44531 -0.10547,-1.01366 -0.10546,-1.70508 -1e-5,-0.48046 0.0703,-0.95507 0.21093,-1.42382 0.14063,-0.46875 0.3457,-0.9082 0.61524,-1.31836 0.28124,-0.41015 0.61523,-0.77929 1.00195,-1.10743 0.39843,-0.33983 0.8496,-0.61522 1.35352,-0.82617 -0.59767,-0.11717 -1.10157,-0.30467 -1.51172,-0.5625 -0.39844,-0.26952 -0.72657,-0.6035 -0.98438,-1.00195 -0.24609,-0.41014 -0.42188,-0.87889 -0.52734,-1.40625 -0.10547,-0.53905 -0.15821,-1.1367 -0.1582,-1.79297 -1e-5,-0.69139 0.0351,-1.28319 0.10546,-1.77539 0.0703,-0.49217 0.14649,-0.95506 0.22852,-1.38867 0.0937,-0.43358 0.17578,-0.86717 0.24609,-1.30078 0.0703,-0.43358 0.10547,-0.93748 0.10547,-1.51172 0,-0.65623 -0.0469,-1.23631 -0.14062,-1.74024 -0.082,-0.50388 -0.24024,-0.95505 -0.47461,-1.35351 -0.22266,-0.41013 -0.53321,-0.77927 -0.93164,-1.10742 -0.39844,-0.33982 -0.90235,-0.67966 -1.51172,-1.01954 l 0.4043,-1.07226 c 0.98437,0.38675 1.82812,0.80276 2.53125,1.24805 0.71484,0.43362 1.29491,0.91994 1.74023,1.45898 0.44531,0.53909 0.77343,1.1426 0.98438,1.81055 0.21093,0.65627 0.31639,1.40627 0.3164,2.25 -10e-6,0.69142 -0.0352,1.26564 -0.10547,1.72265 -0.0703,0.45705 -0.15235,0.89651 -0.24609,1.31836 -0.082,0.41018 -0.15821,0.85549 -0.22852,1.33594 -0.0703,0.46877 -0.10547,1.06056 -0.10547,1.77539 0,0.94923 0.23437,1.66994 0.70313,2.16211 0.48046,0.4922 1.16015,0.73829 2.03906,0.73828 0.15234,10e-6 0.26367,10e-6 0.33399,0 0.0703,10e-6 0.13475,10e-6 0.19336,0 0.0586,-0.0117 0.12889,-0.0234 0.21093,-0.0352 0.0937,-0.0234 0.22851,-0.0527 0.4043,-0.0879 l 0.29883,0.98438 0,0"
         id="path3922" />
    </g>
    <g
       style="font-size:36px;font-style:normal;font-variant:normal;font-weight:normal;font-stretch:normal;fill:#000000;fill-opacity:1;stroke:none;font-family:Gentium;-inkscape-font-specification:Gentium"
       id="text3688-3-7-6">
      <path
         d="m 408.00809,273.20352 c -10e-6,0.45703 -0.0938,0.97266 -0.28125,1.54688 -0.17579,0.57421 -0.43946,1.16015 -0.79102,1.75781 -0.33985,0.59765 -0.75586,1.17773 -1.24805,1.74023 -0.48047,0.57422 -1.02539,1.08984 -1.63476,1.54688 l -0.79102,-0.61524 c 0.32813,-0.375 0.60352,-0.73828 0.82618,-1.08984 0.23437,-0.35157 0.42187,-0.71485 0.5625,-1.08984 0.14062,-0.37501 0.24023,-0.77344 0.29882,-1.19532 0.0703,-0.41015 0.10547,-0.86718 0.10547,-1.37109 0,-0.51562 -0.16406,-0.92578 -0.49219,-1.23047 -0.3164,-0.30468 -0.84961,-0.43359 -1.5996,-0.38672 l -0.28125,-0.82617 c 0.10546,-0.14062 0.32812,-0.29882 0.66796,-0.47461 0.33985,-0.1875 0.70899,-0.36328 1.10743,-0.52734 0.41015,-0.17578 0.80859,-0.3164 1.19531,-0.42188 0.39843,-0.11718 0.70312,-0.16991 0.91406,-0.1582 0.56249,0.26953 0.94335,0.63868 1.14258,1.10742 0.19921,0.45704 0.29882,1.01953 0.29883,1.6875"
         style=""
         id="path3925" />
    </g>
    <g
       style="font-size:36px;font-style:normal;font-variant:normal;font-weight:normal;font-stretch:normal;fill:#000000;fill-opacity:1;stroke:none;font-family:Gentium;-inkscape-font-specification:Gentium"
       id="text3688-9">
      <path
         d="m 291.94708,253.05899 c -0.35157,2e-5 -0.68555,0.006 -1.00195,0.0176 -0.31642,2e-5 -0.61524,0.006 -0.89648,0.0176 l -1.14258,8.41992 0.5625,0 c 0.8203,10e-6 1.61132,-0.0644 2.37304,-0.19336 0.77343,-0.12889 1.45312,-0.36327 2.03907,-0.70313 0.59764,-0.33983 1.07225,-0.80858 1.42382,-1.40625 0.35155,-0.59764 0.52733,-1.36521 0.52735,-2.30273 -2e-5,-0.71483 -0.12892,-1.31834 -0.38672,-1.81055 -0.24611,-0.49216 -0.56251,-0.8906 -0.94922,-1.19531 -0.38673,-0.30467 -0.8086,-0.52146 -1.26562,-0.65039 -0.45705,-0.12889 -0.88478,-0.19334 -1.28321,-0.19336 m -0.58008,9.79102 c -0.51563,10e-6 -0.99024,0.0293 -1.42382,0.0879 -0.4336,0.0469 -0.84962,0.0996 -1.24805,0.1582 l -1.2832,9.33398 c -0.0352,0.0938 0.0293,0.20508 0.19336,0.33399 0.22265,0.10547 0.46874,0.19922 0.73828,0.28125 0.26952,0.0703 0.54491,0.12891 0.82617,0.17578 0.29296,0.0352 0.58007,0.0645 0.86133,0.0879 0.28124,0.0117 0.54491,0.0176 0.79101,0.0176 0.77343,0 1.4707,-0.1582 2.0918,-0.47461 0.6328,-0.32812 1.17186,-0.75586 1.61719,-1.2832 0.4453,-0.52734 0.791,-1.13086 1.03711,-1.81055 0.24608,-0.67968 0.36912,-1.37695 0.36914,-2.0918 -2e-5,-0.58593 -0.0879,-1.16601 -0.26367,-1.74023 -0.16408,-0.57421 -0.42775,-1.08984 -0.79102,-1.54688 -0.36329,-0.45702 -0.8379,-0.82616 -1.42383,-1.10742 -0.57423,-0.28124 -1.27149,-0.42186 -2.0918,-0.42187 m 7.3125,4.20117 c -1e-5,1.14844 -0.22267,2.19727 -0.66796,3.14648 -0.44533,0.94922 -1.04885,1.76368 -1.81055,2.44336 -0.76173,0.67969 -1.6465,1.21289 -2.6543,1.59961 -1.00782,0.375 -2.06837,0.5625 -3.18164,0.5625 -0.31641,0 -0.70899,-0.0176 -1.17773,-0.0527 -0.45704,-0.0234 -0.94337,-0.0527 -1.45899,-0.0879 -0.51563,-0.0352 -1.03125,-0.082 -1.54687,-0.14063 -0.50391,-0.0469 -0.96094,-0.0879 -1.3711,-0.12305 -0.41015,-0.0351 -0.74414,-0.0703 -1.00195,-0.10546 -0.25781,-0.0234 -0.38672,-0.0352 -0.38672,-0.0352 l -1.16015,0 0.10546,-0.75586 c 0.73828,-0.16406 1.33008,-0.33984 1.7754,-0.52734 0.44531,-0.19922 0.67968,-0.38086 0.70312,-0.54493 l 2.61914,-19.14257 c -0.52735,0.0703 -1.00782,0.1465 -1.44141,0.22851 -0.43359,0.0821 -0.86133,0.16994 -1.2832,0.26367 l 0,-1.08984 c 0.53906,-0.15232 1.08984,-0.29295 1.65235,-0.42188 0.56249,-0.1406 1.15429,-0.25779 1.77539,-0.35156 0.62108,-0.10544 1.28319,-0.18748 1.98632,-0.24609 0.70312,-0.0586 1.45898,-0.0879 2.26758,-0.0879 0.94921,2e-5 1.79882,0.0996 2.54883,0.29883 0.76171,0.19924 1.40624,0.49221 1.93359,0.8789 0.53905,0.37502 0.94921,0.83791 1.23047,1.38867 0.29296,0.53909 0.43944,1.14846 0.43946,1.82813 -2e-5,0.60939 -0.0996,1.20119 -0.29883,1.77539 -0.18752,0.57423 -0.45705,1.10744 -0.8086,1.59961 -0.33985,0.48048 -0.75001,0.91408 -1.23046,1.30078 -0.46877,0.37501 -0.98439,0.67384 -1.54688,0.89648 0.59764,0.14064 1.13671,0.37502 1.61719,0.70313 0.49217,0.32814 0.91405,0.73243 1.26562,1.21289 0.35155,0.46876 0.62108,1.00782 0.8086,1.61719 0.1992,0.60938 0.29881,1.26563 0.29882,1.96875"
         style="font-style:italic;-inkscape-font-specification:Andale Mono Italic"
         id="path3928" />
      <path
         d="m 322.79669,261.19766 c -0.0586,0.23439 -0.14064,0.50392 -0.24609,0.8086 -0.10548,0.29298 -0.19338,0.53907 -0.26367,0.73828 l -12.70899,0 -0.43945,-0.43946 c 0.0586,-0.23436 0.13476,-0.49217 0.22851,-0.77343 0.10547,-0.29296 0.21094,-0.55077 0.31641,-0.77344 l 12.67383,0 0.43945,0.43945 0,0 m 0,5.25586 c -0.0586,0.2461 -0.14064,0.51563 -0.24609,0.8086 -0.10548,0.29297 -0.19338,0.55078 -0.26367,0.77343 l -12.70899,0 -0.43945,-0.47461 c 0.0586,-0.23436 0.13476,-0.49218 0.22851,-0.77343 0.10547,-0.28125 0.21094,-0.53906 0.31641,-0.77344 l 12.67383,0 0.43945,0.43945 0,0"
         style=""
         id="path3930" />
      <path
         d="m 343.24005,246.95938 c -0.45704,0.28128 -0.88477,0.60354 -1.2832,0.9668 -0.38673,0.36331 -0.72657,0.7676 -1.01953,1.21289 -0.29298,0.43362 -0.5215,0.90823 -0.68555,1.42383 -0.16407,0.51564 -0.2461,1.07814 -0.24609,1.6875 -10e-6,0.67971 0.0351,1.23635 0.10547,1.66992 0.082,0.43361 0.16405,0.84377 0.24609,1.23047 0.0937,0.37502 0.17577,0.77931 0.24609,1.21289 0.082,0.43361 0.12304,0.99025 0.12305,1.66992 -1e-5,0.4922 -0.0762,0.97853 -0.22852,1.45898 -0.14063,0.46877 -0.34571,0.91408 -0.61523,1.33594 -0.26954,0.41017 -0.60352,0.78517 -1.00195,1.125 -0.38673,0.33986 -0.82618,0.61525 -1.31836,0.82617 0.58593,0.10548 1.07812,0.29298 1.47656,0.5625 0.41015,0.25783 0.73827,0.58595 0.98437,0.98438 0.24609,0.39845 0.42187,0.8672 0.52735,1.40625 0.11718,0.52735 0.17577,1.11329 0.17578,1.75781 -1e-5,0.70313 -0.041,1.30079 -0.12305,1.79297 -0.0703,0.49219 -0.15235,0.95508 -0.24609,1.38867 -0.082,0.4336 -0.16407,0.86719 -0.24609,1.30078 -0.0703,0.4336 -0.10548,0.94336 -0.10547,1.5293 -10e-6,0.64453 0.041,1.21289 0.12304,1.70508 0.0937,0.5039 0.25195,0.95507 0.47461,1.35351 0.23437,0.41016 0.54492,0.78516 0.93164,1.125 0.39843,0.35156 0.9082,0.69727 1.5293,1.03711 l -0.4043,1.07227 c -0.98438,-0.39844 -1.82813,-0.82032 -2.53125,-1.26563 -0.70313,-0.43359 -1.28321,-0.91992 -1.74023,-1.45898 -0.44532,-0.53907 -0.77344,-1.14258 -0.98438,-1.81055 -0.21094,-0.66797 -0.31641,-1.42383 -0.3164,-2.26758 -1e-5,-0.6914 0.0351,-1.25976 0.10547,-1.70507 0.082,-0.45703 0.16405,-0.89063 0.24609,-1.30079 0.0937,-0.42187 0.17578,-0.86718 0.24609,-1.33593 0.082,-0.48047 0.12304,-1.08398 0.12305,-1.81055 -10e-6,-0.94921 -0.24024,-1.66405 -0.7207,-2.14453 -0.46876,-0.49218 -1.14258,-0.73827 -2.02149,-0.73828 -0.16406,1e-5 -0.28711,1e-5 -0.36914,0 -0.0703,1e-5 -0.13477,0.006 -0.19336,0.0176 -0.0586,10e-6 -0.12891,0.0117 -0.21093,0.0351 -0.0703,0.0117 -0.19337,0.0293 -0.36914,0.0527 l -0.29883,-0.93164 c 1.38281,-0.36327 2.42577,-0.90819 3.1289,-1.63477 0.70312,-0.72655 1.05468,-1.52928 1.05469,-2.4082 -10e-6,-0.46874 -0.0176,-0.87303 -0.0527,-1.21289 -0.0352,-0.33983 -0.082,-0.64452 -0.14063,-0.91407 -0.0469,-0.28123 -0.10547,-0.53904 -0.17578,-0.77343 -0.0586,-0.24608 -0.11719,-0.50389 -0.17578,-0.77344 -0.0469,-0.26951 -0.0879,-0.5742 -0.12305,-0.91406 -0.0352,-0.35155 -0.0527,-0.76756 -0.0527,-1.24805 -1e-5,-0.78513 0.1289,-1.52342 0.38672,-2.21484 0.26952,-0.7031 0.65038,-1.34764 1.14257,-1.9336 0.49218,-0.59763 1.08984,-1.14255 1.79297,-1.63476 0.70312,-0.49216 1.49413,-0.93748 2.37305,-1.33594 l 0.45703,0.82617 0,0"
         style=""
         id="path3932" />
    </g>
    <g
       style="font-size:36px;font-style:normal;font-variant:normal;font-weight:normal;font-stretch:normal;fill:#000000;fill-opacity:1;stroke:none;font-family:Gentium;-inkscape-font-specification:Gentium"
       id="text3863">
      <path
         d="m 288.56018,320.11917 5.7832,0 -1.65234,-9.5625 -4.13086,9.5625 m 11.54883,9.4043 -6.76758,0 0.0703,-0.75586 c 0.83202,-0.0586 1.42968,-0.17578 1.79297,-0.35156 0.36327,-0.1875 0.50975,-0.46875 0.43946,-0.84375 l -1.01954,-5.85352 -6.75,0 -2.51367,5.85352 c -0.16406,0.36328 -0.0762,0.62695 0.26367,0.79101 0.35156,0.15235 0.97851,0.28711 1.88086,0.4043 l -0.10547,0.75586 -6.6621,0 0.10546,-0.75586 c 0.73828,-0.14063 1.33008,-0.28711 1.77539,-0.43945 0.44532,-0.16407 0.74414,-0.41602 0.89649,-0.75586 l 8.56055,-19.65235 c 0.15233,-0.1406 0.33397,-0.28123 0.54492,-0.42187 0.21092,-0.15232 0.42772,-0.29295 0.65039,-0.42188 0.22264,-0.1406 0.43358,-0.26951 0.63281,-0.38672 0.21093,-0.12888 0.39257,-0.23435 0.54492,-0.3164 l 3.79688,21.19922 c 0.0234,0.16406 0.0644,0.31054 0.12304,0.43945 0.0703,0.11719 0.17577,0.22852 0.31641,0.33398 0.14061,0.0937 0.32811,0.17579 0.5625,0.2461 0.24608,0.0703 0.55662,0.1289 0.93164,0.17578 l -0.0703,0.75586"
         style="font-style:italic;-inkscape-font-specification:Andale Mono Italic"
         id="path3896" />
      <path
         d="m 317.6344,319.08206 0,-10.40625 3.02344,0 0,9.9668 c -1e-5,2.85938 0.43358,4.91016 1.30078,6.15234 0.86718,1.23047 2.27342,1.84571 4.21875,1.84571 1.93358,0 3.33397,-0.61524 4.20117,-1.84571 0.86717,-1.24218 1.30076,-3.29296 1.30078,-6.15234 l 0,-9.9668 3.02344,0 0,10.40625 c -2e-5,3.46876 -0.72073,6.07618 -2.16211,7.82227 -1.42971,1.74609 -3.5508,2.61914 -6.36328,2.61914 -2.82423,0 -4.95704,-0.87305 -6.39844,-2.61914 -1.42969,-1.74609 -2.14454,-4.35351 -2.14453,-7.82227"
         style=""
         id="path3898" />
      <path
         d="m 360.50745,308.32425 c -0.35158,2e-5 -0.68556,0.006 -1.00196,0.0176 -0.31641,2e-5 -0.61524,0.006 -0.89648,0.0176 l -1.14258,8.41992 0.5625,0 c 0.82031,10e-6 1.61132,-0.0644 2.37305,-0.19336 0.77342,-0.1289 1.45311,-0.36327 2.03906,-0.70313 0.59764,-0.33983 1.07225,-0.80858 1.42383,-1.40625 0.35155,-0.59764 0.52733,-1.36521 0.52734,-2.30273 -10e-6,-0.71483 -0.12892,-1.31834 -0.38672,-1.81055 -0.2461,-0.49217 -0.56251,-0.8906 -0.94922,-1.19531 -0.38673,-0.30467 -0.8086,-0.52146 -1.26562,-0.65039 -0.45704,-0.12889 -0.88478,-0.19334 -1.2832,-0.19336 m -0.58008,9.79101 c -0.51564,2e-5 -0.99024,0.0293 -1.42383,0.0879 -0.4336,0.0469 -0.84962,0.0996 -1.24805,0.1582 l -1.2832,9.33398 c -0.0352,0.0937 0.0293,0.20508 0.19336,0.33399 0.22265,0.10547 0.46874,0.19922 0.73828,0.28125 0.26953,0.0703 0.54492,0.1289 0.82617,0.17578 0.29296,0.0352 0.58007,0.0645 0.86133,0.0879 0.28124,0.0117 0.54491,0.0176 0.79102,0.0176 0.77342,0 1.47069,-0.1582 2.09179,-0.47461 0.6328,-0.32813 1.17187,-0.75586 1.61719,-1.28321 0.4453,-0.52734 0.791,-1.13085 1.03711,-1.81054 0.24608,-0.67968 0.36913,-1.37695 0.36914,-2.0918 -10e-6,-0.58593 -0.0879,-1.16601 -0.26367,-1.74023 -0.16408,-0.57421 -0.42775,-1.08984 -0.79102,-1.54688 -0.36329,-0.45702 -0.8379,-0.82616 -1.42382,-1.10742 -0.57423,-0.28124 -1.2715,-0.42186 -2.0918,-0.42188 m 7.3125,4.20118 c -2e-5,1.14844 -0.22267,2.19727 -0.66797,3.14648 -0.44533,0.94922 -1.04884,1.76368 -1.81055,2.44336 -0.76173,0.67969 -1.64649,1.21289 -2.65429,1.59961 -1.00783,0.375 -2.06837,0.5625 -3.18164,0.5625 -0.31642,0 -0.709,-0.0176 -1.17774,-0.0527 -0.45704,-0.0234 -0.94336,-0.0527 -1.45898,-0.0879 -0.51563,-0.0351 -1.03126,-0.082 -1.54688,-0.14062 -0.50391,-0.0469 -0.96094,-0.0879 -1.37109,-0.12305 -0.41016,-0.0351 -0.74414,-0.0703 -1.00196,-0.10547 -0.25781,-0.0234 -0.38672,-0.0352 -0.38671,-0.0352 l -1.16016,0 0.10547,-0.75586 c 0.73828,-0.16406 1.33007,-0.33984 1.77539,-0.52735 0.44531,-0.19921 0.67968,-0.38085 0.70312,-0.54492 l 2.61914,-19.14258 c -0.52734,0.0703 -1.00781,0.14651 -1.4414,0.22852 -0.4336,0.0821 -0.86133,0.16994 -1.2832,0.26367 l 0,-1.08984 c 0.53905,-0.15232 1.08984,-0.29295 1.65234,-0.42188 0.56249,-0.1406 1.15429,-0.25779 1.77539,-0.35156 0.62109,-0.10545 1.2832,-0.18748 1.98633,-0.24609 0.70311,-0.0586 1.45897,-0.0879 2.26758,-0.0879 0.9492,2e-5 1.79881,0.0996 2.54882,0.29882 0.76171,0.19925 1.40624,0.49221 1.9336,0.87891 0.53904,0.37502 0.9492,0.83791 1.23047,1.38867 0.29295,0.53909 0.43943,1.14846 0.43945,1.82813 -2e-5,0.60939 -0.0996,1.20119 -0.29883,1.77539 -0.18751,0.57423 -0.45705,1.10744 -0.80859,1.59961 -0.33986,0.48048 -0.75002,0.91407 -1.23047,1.30078 -0.46876,0.37501 -0.98439,0.67384 -1.54688,0.89648 0.59765,0.14064 1.13671,0.37502 1.61719,0.70313 0.49217,0.32814 0.91405,0.73243 1.26563,1.21289 0.35154,0.46876 0.62107,1.00782 0.80859,1.61719 0.1992,0.60938 0.29881,1.26563 0.29883,1.96875"
         style="font-style:italic;-inkscape-font-specification:Andale Mono Italic"
         id="path3900" />
    </g>
    <path
       style="color:#000000;fill:#4682b4;fill-opacity:1;fill-rule:nonzero;stroke:#000000;stroke-width:3.75;stroke-linecap:round;stroke-linejoin:round;stroke-miterlimit:4;stroke-opacity:1;stroke-dasharray:none;stroke-dashoffset:0;marker:none;visibility:visible;display:inline;overflow:visible;enable-background:accumulate"
       d="m 371.39354,387.58465 23.3892,-30.59639 37.61001,8.28739 -23.38921,30.59638 -37.61,-8.28738 z"
       id="rect2874" />
    <path
       style="color:#000000;fill:#4682b4;fill-opacity:1;fill-rule:nonzero;stroke:#000000;stroke-width:3.125;stroke-linecap:round;stroke-linejoin:round;stroke-miterlimit:4;stroke-opacity:1;stroke-dasharray:none;stroke-dashoffset:0;marker:none;visibility:visible;display:inline;overflow:visible;enable-background:accumulate"
       d="m 426.45222,212.3478 -14.37593,-22.80564 14.60556,-22.65927 14.37592,22.80564 -14.60555,22.65927 z"
       id="rect2874-8" />
    <path
       style="color:#000000;fill:#fd7118;fill-opacity:1;fill-rule:nonzero;stroke:#000000;stroke-width:3.125;stroke-linecap:round;stroke-linejoin:round;stroke-miterlimit:3.96513605;stroke-opacity:1;stroke-dasharray:none;stroke-dashoffset:0.6;marker:none;visibility:visible;display:inline;overflow:visible;enable-background:accumulate"
       d="m 515.53407,278.23224 c 0,0 -21.16487,-0.28455 -21.16487,-0.28455 0,0 -6.2697,-20.21696 -6.2697,-20.21696 0,0 17.29003,-12.21024 17.29003,-12.21024 0,0 16.95553,12.67066 16.95553,12.67066 0,0 -6.81098,20.04109 -6.81098,20.04109 z"
       id="path3659-3-6"
       sodipodi:nodetypes="cccccc" />
    <g
       transform="translate(66.88308,0)"
       style="font-size:36px;font-style:normal;font-variant:normal;font-weight:normal;font-stretch:normal;fill:#000000;fill-opacity:1;stroke:none;font-family:Gentium;-inkscape-font-specification:Gentium"
       id="text3688-3-7-6-0">
      <path
         d="m 408.00809,273.20352 c -10e-6,0.45703 -0.0938,0.97266 -0.28125,1.54688 -0.17579,0.57421 -0.43946,1.16015 -0.79102,1.75781 -0.33985,0.59765 -0.75586,1.17773 -1.24805,1.74023 -0.48047,0.57422 -1.02539,1.08984 -1.63476,1.54688 l -0.79102,-0.61524 c 0.32813,-0.375 0.60352,-0.73828 0.82618,-1.08984 0.23437,-0.35157 0.42187,-0.71485 0.5625,-1.08984 0.14062,-0.37501 0.24023,-0.77344 0.29882,-1.19532 0.0703,-0.41015 0.10547,-0.86718 0.10547,-1.37109 0,-0.51562 -0.16406,-0.92578 -0.49219,-1.23047 -0.3164,-0.30468 -0.84961,-0.43359 -1.5996,-0.38672 l -0.28125,-0.82617 c 0.10546,-0.14062 0.32812,-0.29882 0.66796,-0.47461 0.33985,-0.1875 0.70899,-0.36328 1.10743,-0.52734 0.41015,-0.17578 0.80859,-0.3164 1.19531,-0.42188 0.39843,-0.11718 0.70312,-0.16991 0.91406,-0.1582 0.56249,0.26953 0.94335,0.63868 1.14258,1.10742 0.19921,0.45704 0.29882,1.01953 0.29883,1.6875"
         id="path3925-6" />
    </g>
  </g>
</svg>
